<svg width="141" height="36" viewBox="0 0 141 36" fill="none" xmlns="http://www.w3.org/2000/svg">
<path d="M1.27266 27V9.54545H8.84084C10.1704 9.54545 11.2869 9.72443 12.1903 10.0824C13.0994 10.4403 13.784 10.946 14.2443 11.5994C14.7102 12.2528 14.9431 13.0227 14.9431 13.9091C14.9431 14.5511 14.8011 15.1364 14.517 15.6648C14.2386 16.1932 13.8465 16.6364 13.3408 16.9943C12.8352 17.3466 12.2443 17.5909 11.5681 17.7273V17.8977C12.3181 17.9261 12.9999 18.1165 13.6136 18.4688C14.2272 18.8153 14.7158 19.2955 15.0795 19.9091C15.4431 20.517 15.6249 21.233 15.6249 22.0568C15.6249 23.0114 15.3749 23.8608 14.8749 24.6051C14.3806 25.3494 13.6761 25.9347 12.7613 26.3608C11.8465 26.7869 10.7556 27 9.48857 27H1.27266ZM6.0113 23.2159H8.22721C9.02266 23.2159 9.61925 23.0682 10.017 22.7727C10.4147 22.4716 10.6136 22.0284 10.6136 21.4432C10.6136 21.0341 10.5198 20.6875 10.3323 20.4034C10.1448 20.1193 9.87777 19.9034 9.53118 19.7557C9.19027 19.608 8.77834 19.5341 8.29539 19.5341H6.0113V23.2159ZM6.0113 16.6023H7.95448C8.36925 16.6023 8.73573 16.5369 9.05391 16.4062C9.37209 16.2756 9.61925 16.0881 9.79539 15.8438C9.97721 15.5938 10.0681 15.2898 10.0681 14.9318C10.0681 14.392 9.87493 13.9801 9.48857 13.696C9.10221 13.4062 8.61357 13.2614 8.02266 13.2614H6.0113V16.6023ZM28.0664 27V9.54545H32.805V23.1818H39.8619V27H28.0664ZM47.716 9.54545V27H42.9773V9.54545H47.716ZM66.264 9.54545V27H62.3094L56.0026 17.8295H55.9004V27H51.1617V9.54545H55.1844L61.389 18.6818H61.5254V9.54545H66.264ZM81.0407 15.3068C80.9668 15.0057 80.8504 14.7415 80.6913 14.5142C80.5322 14.2812 80.3333 14.0852 80.0947 13.9261C79.8617 13.7614 79.589 13.6392 79.2765 13.5597C78.9697 13.4744 78.6316 13.4318 78.2623 13.4318C77.4668 13.4318 76.7879 13.6222 76.2254 14.0028C75.6685 14.3835 75.2424 14.9318 74.947 15.6477C74.6572 16.3636 74.5123 17.2273 74.5123 18.2386C74.5123 19.2614 74.6515 20.1364 74.9299 20.8636C75.2083 21.5909 75.6231 22.1477 76.1742 22.5341C76.7254 22.9205 77.41 23.1136 78.2282 23.1136C78.9498 23.1136 79.5492 23.0085 80.0265 22.7983C80.5095 22.5881 80.8702 22.2898 81.1089 21.9034C81.3475 21.517 81.4668 21.0625 81.4668 20.5398L82.285 20.625H78.2964V17.25H86.035V19.6705C86.035 21.2614 85.697 22.6222 85.0208 23.7528C84.3504 24.8778 83.4242 25.7415 82.2424 26.3438C81.0663 26.9403 79.7168 27.2386 78.1941 27.2386C76.4952 27.2386 75.0038 26.8778 73.7197 26.1562C72.4356 25.4347 71.4327 24.4062 70.7112 23.071C69.9952 21.7358 69.6373 20.1477 69.6373 18.3068C69.6373 16.8636 69.856 15.5852 70.2935 14.4716C70.7367 13.358 71.3504 12.4176 72.1345 11.6506C72.9185 10.8778 73.8248 10.2955 74.8532 9.90341C75.8816 9.50568 76.9839 9.30682 78.16 9.30682C79.1941 9.30682 80.1543 9.45455 81.0407 9.75C81.9327 10.0398 82.7197 10.4545 83.4015 10.9943C84.089 11.5284 84.643 12.1619 85.0634 12.8949C85.4839 13.6278 85.7396 14.4318 85.8305 15.3068H81.0407ZM99.7741 9.54545H104.513V20.7273C104.513 22.0568 104.195 23.2074 103.558 24.179C102.927 25.1449 102.047 25.892 100.916 26.4205C99.7854 26.9432 98.4729 27.2045 96.9786 27.2045C95.4729 27.2045 94.1548 26.9432 93.0241 26.4205C91.8934 25.892 91.0127 25.1449 90.382 24.179C89.757 23.2074 89.4445 22.0568 89.4445 20.7273V9.54545H94.1832V20.3182C94.1832 20.858 94.3025 21.3409 94.5411 21.767C94.7798 22.1875 95.1093 22.517 95.5298 22.7557C95.9559 22.9943 96.4389 23.1136 96.9786 23.1136C97.5241 23.1136 98.007 22.9943 98.4275 22.7557C98.8479 22.517 99.1775 22.1875 99.4161 21.767C99.6548 21.3409 99.7741 20.858 99.7741 20.3182V9.54545ZM112.499 27H107.385L113.147 9.54545H119.624L125.385 27H120.272L116.453 14.3523H116.317L112.499 27ZM111.544 20.1136H121.158V23.6591H111.544V20.1136ZM128.266 27V9.54545H133.005V23.1818H140.062V27H128.266Z" fill="#28292F"/>
<circle cx="22" cy="12.5" r="3" fill="#CF01A2"/>
<path d="M20.2176 17.8678C20.2839 17.371 20.7076 17 21.2088 17H22.7912C23.2924 17 23.7161 17.371 23.7824 17.8678L24.849 25.8678C24.929 26.4673 24.4626 27 23.8578 27H20.1422C19.5374 27 19.071 26.4673 19.151 25.8678L20.2176 17.8678Z" fill="#CF01A2"/>
</svg>
